<svg xmlns="http://www.w3.org/2000/svg" width="289.635" height="71.218" viewBox="0 0 289.635 71.218">
  <g id="RR_Logo_white_text" data-name="RR Logo white text" transform="translate(0 0)">
    <path id="Riverside" d="M80.227,20.175l3.363-2.865a4.368,4.368,0,0,0,4.015,2.3c1.8,0,4.012-.995,4.291-3.02.687-4.824-10.174-2.056-9.055-9.927C83.466,2.12,87.82,0,91.9,0A7.972,7.972,0,0,1,97.9,2.277L94.6,5.294A4,4,0,0,0,91,3.55c-1.8,0-3.734.808-4.014,2.835-.622,4.418,10.206,1.9,9.087,9.741-.652,4.731-4.73,7.033-9.055,7.033C84.273,23.159,81.722,22.322,80.227,20.175ZM66.944,22.6H63.027L66.138.563h7.655c3.024,0,5.153.688,6.328,2.045A5.183,5.183,0,0,1,81.1,6.883a7.006,7.006,0,0,1-1.886,4,6.931,6.931,0,0,1-4.056,1.971l4.48,9.746H74.91l-3.793-9.338H68.254L66.945,22.6h0ZM68.72,9.9H71.77C74.091,9.9,76.6,9.664,77,6.848a2.326,2.326,0,0,0-.435-1.918c-.771-.891-2.335-1.006-3.61-1.006h-3.4ZM3.921,22.6H0L3.114.563h7.653c3.025,0,5.155.689,6.332,2.045a5.184,5.184,0,0,1,.982,4.275,7.032,7.032,0,0,1-1.888,4,6.928,6.928,0,0,1-4.058,1.971l4.48,9.746H11.889l-3.8-9.338H5.229L3.922,22.6h0ZM5.7,9.9h3.05c2.319,0,4.827-.236,5.223-3.052a2.317,2.317,0,0,0-.43-1.918C12.77,4.038,11.2,3.924,9.927,3.924H6.535Zm121,12.7L129.812.562h13.993q-.912,1.772-1.691,3.55H133.2l-.747,5.414h7.629q-.578,1.791-1.011,3.55h-7.115l-.841,5.974h6.86c-.139,1.208-.226,2.389-.261,3.553Zm-21.3,0L108.508.562h8.683a10,10,0,0,1,7.745,3.1c1.687,1.945,2.343,4.681,1.9,7.915a12.149,12.149,0,0,1-5.024,8.336,14.331,14.331,0,0,1-8.2,2.686Zm4.418-3.553h2.926c5.686,0,9.326-2.722,9.987-7.469.32-2.288-.07-4.087-1.16-5.346-1.22-1.409-3.269-2.124-6.09-2.124H111.9ZM97.9,22.6,101.01.563h3.919L101.818,22.6Zm-52.633,0L48.375.563H62.969l-.53,3.549H51.768L51.02,9.527H61.134l-.5,3.55H50.521l-.839,5.974H60.916l-.5,3.551Zm-13.405,0L26.316.563H30.83l3.638,16.655L43.028.563H47.26L35.249,22.6Zm-13.6,0L21.372.563H25.29L22.18,22.6Z" transform="translate(0 25.405)" fill="#fff"/>
    <path id="Research" d="M100.218,11.582A13.063,13.063,0,0,1,113.225,0c2.991,0,5.543,1,7.1,3.456l-1.865,1.4a5.982,5.982,0,0,0-5.477-2.988c-5.757,0-9.957,4.234-10.7,9.713-.78,5.478,2.208,9.711,7.963,9.711a9.225,9.225,0,0,0,6.972-3.425l1.525,1.279a11.183,11.183,0,0,1-8.777,4.013C103.237,23.159,99.261,18.307,100.218,11.582Zm-68.2,8.25,2.114-1.309A4.763,4.763,0,0,0,38.8,21.292c2.77,0,5.167-1.682,5.542-4.325.87-6.165-10.983-2.552-9.8-10.928C35.07,2.118,38.74,0,42.443,0a6.216,6.216,0,0,1,5.634,2.771L46.116,4.047a4.212,4.212,0,0,0-3.981-2.179c-2.643,0-5.163,1.37-5.538,4.17-.933,6.631,10.983,2.647,9.8,10.928-.56,3.985-4.138,6.193-7.717,6.193C35.789,23.159,33.39,22.228,32.023,19.832ZM86.65,22.6H84.6L87.71.562H93.5c1.224,0,4.478,0,6.118,1.9a4.688,4.688,0,0,1,.883,3.887c-.577,4.086-3.8,5.335-6.409,5.663L99.008,22.6l-2.334,0L91.942,12.139H88.116L86.651,22.6h0ZM88.4,10.274h4.354c4.632,0,5.528-2.743,5.7-3.922a3.275,3.275,0,0,0-.655-2.6c-.757-.877-2.085-1.321-3.951-1.321H89.488ZM2.053,22.6H0L3.112.562H8.9c1.224,0,4.477,0,6.117,1.9A4.689,4.689,0,0,1,15.9,6.353c-.578,4.087-3.806,5.336-6.413,5.663L14.407,22.6l-2.333,0L7.34,12.139H3.516L2.054,22.6h0ZM3.8,10.274H8.157c4.633,0,5.522-2.743,5.69-3.922a3.277,3.277,0,0,0-.657-2.605c-.755-.876-2.084-1.319-3.947-1.319H4.885ZM64.461,22.6H62.313L75.042.563H77.16L83.319,22.6h-2.3L79.43,16.75H67.761l-3.3,5.849h0Zm4.385-7.72H78.964L75.664,2.8ZM134.7,22.6l1.464-10.46H123.839L122.38,22.6h-2.054L123.436.563h2.051l-1.366,9.711h12.32l1.37-9.711h2.054L136.755,22.6Zm-87.365,0L50.444.563H63.919l-.283,1.865H52.215l-1.09,7.846H61.831l-.28,1.865h-10.7l-1.214,8.594H61.551L61.306,22.6Zm-31.194,0L19.251.563H32.724l-.283,1.865H21.023l-1.086,7.846h10.7L30.36,12.14H19.654L18.44,20.733H30.36L30.11,22.6Z" transform="translate(149.77 25.405)" fill="#fff"/>
    <path id="Combined_Shape" data-name="Combined Shape" d="M10.781,69.832C-1.566,64.415-3.611,44.7,6.22,25.8S34.022-4.029,46.368,1.386c5.8,2.544,9.325,8.242,10.412,15.532C55.728,10.495,52.636,5.544,47.591,3.33,36.253-1.644,19.362,9.12,9.874,27.37s-7.989,37.08,3.35,42.052c5.9,2.591,13.3.921,20.371-3.842-5.3,3.62-10.851,5.638-15.961,5.638A16.936,16.936,0,0,1,10.781,69.832Zm3.96-2.614c-3.573-1.566-5.92-4.887-7.026-9.3a10.939,10.939,0,0,0,5.795,6.941c7.725,3.42,19.418-3.711,27.939-16.337a9.623,9.623,0,0,0,3.1,1.909C37.213,61.284,27.44,68.177,19.5,68.177A11.759,11.759,0,0,1,14.74,67.218ZM51.079,23.17c.731-8.286-1.518-14.833-6.7-17.131a10.843,10.843,0,0,0-5.513-.788,12.87,12.87,0,0,1,7.763.65c5.514,2.423,8.117,9.041,7.711,17.417A8.76,8.76,0,0,0,51.079,23.17Z" transform="translate(140.01)" fill="#de0017"/>
  </g>
</svg>
